<?xml version="1.0" encoding="UTF-8" standalone="no"?>
<!-- Created with Inkscape (http://www.inkscape.org/) -->

<svg
   width="118.32172mm"
   height="118.32172mm"
   viewBox="0 0 118.32172 118.32172"
   version="1.1"
   id="svg925"
   inkscape:version="1.1.1 (3bf5ae0d25, 2021-09-20, custom)"
   sodipodi:docname="logo.svg"
   xmlns:inkscape="http://www.inkscape.org/namespaces/inkscape"
   xmlns:sodipodi="http://sodipodi.sourceforge.net/DTD/sodipodi-0.dtd"
   xmlns="http://www.w3.org/2000/svg"
   xmlns:svg="http://www.w3.org/2000/svg">
  <sodipodi:namedview
     id="namedview927"
     pagecolor="#ffffff"
     bordercolor="#666666"
     borderopacity="1.0"
     inkscape:pageshadow="2"
     inkscape:pageopacity="0.0"
     inkscape:pagecheckerboard="0"
     inkscape:document-units="mm"
     showgrid="false"
     inkscape:zoom="0.68239338"
     inkscape:cx="224.21085"
     inkscape:cy="106.2437"
     inkscape:window-width="1255"
     inkscape:window-height="695"
     inkscape:window-x="1305"
     inkscape:window-y="999"
     inkscape:window-maximized="0"
     inkscape:current-layer="layer1" />
  <defs
     id="defs922" />
  <g
     inkscape:label="Layer 1"
     inkscape:groupmode="layer"
     id="layer1"
     transform="translate(-45.913553,-89.533005)">
    <path
       d="m 87.437764,89.533005 h 76.797506 v 70.993185 c 0,26.03084 -21.29766,47.32853 -47.32853,47.32853 H 45.913553 v -76.79745 c 0,-22.83846 18.685748,-41.524265 41.524211,-41.524265 z"
       style="fill:#000000;fill-rule:evenodd;stroke-width:0.264583"
       id="path21" />
    <path
       d="M 90.706902,101.50146 H 124.6363 v 18.38518 H 90.706902 c -8.024891,0 -14.651698,6.62657 -14.651698,14.65165 V 196.2996 H 57.670208 v -61.76131 c 0,-18.17167 14.865191,-33.03683 33.036694,-33.03683 z"
       style="fill:#008bd0;fill-rule:evenodd;stroke-width:0.264583"
       id="path23" />
    <path
       d="m 116.04875,147.18069 h 8.58184 v -6.52534 h 6.52523 V 128.67279 H 92.542714 c -3.888528,0.31343 -7.053924,3.6716 -7.053924,7.6255 v 1.96276 c 0.01413,0.45445 0.0208,0.92718 0.0208,1.4265 v 31.23846 -7.66339 14.65214 18.38484 h 18.38483 18.17212 l 0.0791,-0.11422 c 16.91071,-1.38745 30.3223,-15.66444 30.3223,-32.92276 v -16.20457 h 0.0105 v -18.38526 h -0.0105 v -27.58466 h -17.94753 l -0.42757,0.41333 v 25.96343 1.2079 11.98256 h 6.52534 v 15.98763 h -6.52534 v 9.71947 h 6.52534 v 15.98763 h -15.9876 v -6.52523 h -8.58184 v 6.52523 H 100.0611 v -15.98763 h 6.52524 v -9.71947 h -6.52524 v -15.98763 h 15.98764 z"
       style="fill:#fefefe;fill-rule:evenodd;stroke-width:0.264583"
       id="path25" />
    <path
       d="m 124.63059,150.11775 h -8.58184 v 6.52523 h -6.52534 v 9.71947 h 6.52534 v 6.52542 h 8.58184 v -6.52542 h 6.52523 v -9.71947 h -6.52523 z"
       style="fill:#fefefe;fill-rule:evenodd;stroke-width:0.264583"
       id="path27" />
  </g>
</svg>
