<?xml version="1.0" encoding="UTF-8" standalone="no"?>
<!-- Creator: CorelDRAW 2021 (64-Bit) -->

<svg
   xml:space="preserve"
   width="5751px"
   height="1863px"
   version="1.1"
   style="shape-rendering:geometricPrecision; text-rendering:geometricPrecision; image-rendering:optimizeQuality; fill-rule:evenodd; clip-rule:evenodd"
   viewBox="0 0 6006.32 1946.06"
   id="svg1164"
   sodipodi:docname="logo.svg"
   inkscape:version="1.1.1 (3bf5ae0d25, 2021-09-20)"
   xmlns:inkscape="http://www.inkscape.org/namespaces/inkscape"
   xmlns:sodipodi="http://sodipodi.sourceforge.net/DTD/sodipodi-0.dtd"
   xmlns="http://www.w3.org/2000/svg"
   xmlns:svg="http://www.w3.org/2000/svg"><sodipodi:namedview
   id="namedview1166"
   pagecolor="#ffffff"
   bordercolor="#666666"
   borderopacity="1.0"
   inkscape:pageshadow="2"
   inkscape:pageopacity="0.0"
   inkscape:pagecheckerboard="0"
   showgrid="false"
   inkscape:zoom="0.067162233"
   inkscape:cx="4012.6718"
   inkscape:cy="1920.7223"
   inkscape:window-width="2512"
   inkscape:window-height="1392"
   inkscape:window-x="48"
   inkscape:window-y="302"
   inkscape:window-maximized="1"
   inkscape:current-layer="Слой_x0020_1" />
 <defs
   id="defs1143">
  <style
   type="text/css"
   id="style1141">
   <![CDATA[
    .fil2 {fill:#008DD2}
    .fil0 {fill:#008DD2}
    .fil1 {fill:black}
    .fil3 {fill:#FEFEFE}
   ]]>
  </style>
 
   
   
   
   
   
   
   
   
  </defs>
 <g
   id="Слой_x0020_1"
   inkscape:label="Слой 1">
  <metadata
   id="CorelCorpID_0Corel-Layer" />
  <path
   class="fil0"
   d="m 5033.03,695.03 h -188.27 l 164.27,540.82 c 6.75,23.37 15.32,48.12 27.34,69.18 8.19,14.31 18.49,28.11 31.56,38.32 11.57,9.02 24.55,15.03 38.84,18.34 18.11,4.18 37.26,5.5 55.81,5.5 20.04,0 42.09,-1.54 61.32,-7.6 14,-4.4 27.49,-10.85 38.81,-20.32 10.54,-8.85 18.84,-19.6 25.1,-31.87 7.68,-15.03 13.48,-31.13 18.22,-47.32 l 90.2,-308.12 0.87,-1.71 c 1.09,-2.14 1.93,-5.08 2.59,-7.39 3.48,-12.25 12.38,-22.01 25.86,-22.01 13.49,0 22.32,9.76 25.82,21.97 0.7,2.39 1.55,5.33 2.66,7.56 l 0.84,1.65 90.18,308.05 c 4.74,16.17 10.52,32.29 18.2,47.32 6.28,12.27 14.58,23 25.14,31.87 11.33,9.47 24.79,15.92 38.79,20.32 19.24,6.06 41.31,7.6 61.34,7.6 18.53,0 37.72,-1.32 55.82,-5.5 14.27,-3.31 27.26,-9.32 38.81,-18.34 12.95,-10.13 23.02,-23.78 30.93,-38.09 11.96,-21.58 20.89,-46 28.04,-69.55 l 164.2,-540.68 h -188.27 l -112.73,410.16 c -2.57,9 -6.15,19.91 -12.78,26.6 -5.52,5.52 -12.05,9.6 -20.14,9.6 -11.63,0 -19.56,-7.85 -24.69,-17.38 -2.57,-4.8 -5.02,-10.01 -6.26,-14.91 l -105.7,-360.36 c -3.52,-12.02 -9.1,-24.45 -18.25,-33.31 -8.05,-7.8 -17.21,-14.14 -27.63,-18.36 -10.35,-4.2 -21.12,-7.03 -32.22,-8.18 -10.64,-1.13 -21.41,-1.91 -32.1,-1.91 -10.7,0 -21.47,0.78 -32.12,1.91 -11.09,1.15 -21.86,4 -32.2,8.18 -10.44,4.22 -19.58,10.56 -27.67,18.38 -9.12,8.84 -14.7,21.29 -18.22,33.29 l -105.71,360.36 c -1.24,4.9 -3.66,10.11 -6.24,14.91 -5.13,9.53 -13.07,17.38 -24.69,17.38 -8.11,0 -14.59,-4.06 -20.11,-9.58 -6.67,-6.67 -10.23,-17.6 -12.83,-26.62 z"
   id="path1146"
   style="fill:#ffffff" /><path
   class="fil0"
   d="m 4125.53,1027.09 c 0,-25.69 0.72,-51.86 3.65,-77.41 2.84,-24.79 12.12,-47.56 25.98,-67.99 7.76,-11.98 17.25,-23.26 28.78,-32.14 10.63,-8.15 22.43,-14.39 35.09,-18.76 12.7,-4.36 25.86,-6.98 39.24,-8.11 13.96,-1.15 28,-1.56 42,-1.56 26.55,0 54.57,2.08 80.18,9.34 27.88,7.91 48.98,27.53 64.86,51.11 7.02,10.42 13.09,21.51 17.7,33.21 4.37,11.14 7.27,22.75 8.82,34.61 1.52,11.86 2.34,23.84 2.69,35.8 0.4,13.96 0.5,27.94 0.5,41.9 0,25.39 -0.85,51.07 -3.65,76.31 -2.8,25.16 -11.9,48.34 -26.21,69.41 -8.4,11.9 -17.97,22.95 -29.19,32.01 -10.38,8.38 -21.95,14.91 -34.63,19.13 -12.46,4.14 -25.51,6.46 -38.59,7.54 -14.12,1.13 -28.31,1.58 -42.48,1.58 -13.83,0 -27.67,-0.47 -41.46,-1.58 -13.18,-1.08 -26.31,-3.42 -38.92,-7.48 -12.93,-4.18 -24.81,-10.62 -35.53,-18.96 -11.66,-9.06 -21.27,-20.4 -29.3,-32.74 -13.32,-20.46 -21.46,-43.15 -24.81,-67.35 -3.56,-25.69 -4.72,-51.94 -4.72,-77.87 z m 174.74,-340.11 c -27.3,0 -54.6,0.51 -81.88,1.48 -26.93,0.97 -53.8,3.68 -80.36,8.28 -25.12,4.34 -49.76,11.07 -73.48,20.5 -21.81,8.69 -41.37,21.07 -58.7,36.9 -16.99,15.5 -30.58,33.52 -39.91,54.58 -9.88,22.32 -17.31,45.59 -22.34,69.47 -5.18,24.56 -8.21,49.52 -9.16,74.62 -0.93,24.75 -1.48,49.52 -1.48,74.28 0,24.61 0.55,49.19 1.48,73.78 0.95,24.93 4.02,49.7 9.16,74.12 5.03,23.88 12.48,47.13 22.34,69.45 9.45,21.33 22.98,39.84 40.05,55.73 17.13,15.94 36.81,28.11 58.56,36.75 23.72,9.41 48.34,16.17 73.48,20.51 26.73,4.61 53.76,7.31 80.86,8.28 27.11,0.95 54.25,1.48 81.38,1.48 27.14,0 54.28,-0.53 81.4,-1.48 27.09,-0.97 54.13,-3.67 80.85,-8.28 25.14,-4.34 49.77,-11.1 73.48,-20.51 21.77,-8.64 41.43,-20.83 58.44,-36.62 16.68,-16.11 30.04,-34.84 39.76,-56.09 10.13,-22.17 17.72,-45.36 22.75,-69.22 5.14,-24.42 8.19,-49.21 9.16,-74.12 0.95,-24.59 1.48,-49.19 1.48,-73.78 0,-24.76 -0.55,-49.53 -1.48,-74.28 -0.97,-25.08 -3.97,-50.06 -9.16,-74.62 -5.03,-23.86 -12.62,-47.07 -22.75,-69.24 -9.58,-20.94 -22.78,-39.29 -39.64,-54.93 -17.15,-15.94 -36.81,-28.13 -58.56,-36.78 -23.71,-9.43 -48.36,-16.16 -73.48,-20.5 -26.56,-4.6 -53.43,-7.31 -80.36,-8.28 -27.28,-0.97 -54.58,-1.48 -81.89,-1.48 z"
   id="path1148"
   style="fill:#ffffff" /><path
   class="fil0"
   d="M 3752.88,1359.14 V 1225 h -345.14 c -7.43,0 -14.86,-0.62 -22.21,-1.73 -10.26,-1.54 -19.69,-5.56 -27.53,-12.35 -9.16,-7.91 -14.81,-18.33 -16.49,-30.31 -0.91,-6.38 -1.71,-13.08 -1.71,-19.52 V 695.03 h -186.52 v 594.02 c 0,10.79 2.14,21.11 7.18,30.68 4.26,8.07 9.76,16.19 16.76,22.12 7.72,6.52 16.95,10.48 26.71,12.8 11.98,2.86 24.23,4.49 36.56,4.49 z"
   id="path1150"
   style="fill:#ffffff" /><path
   class="fil0"
   d="m 2323.21,1359.14 h 186.52 v -278.08 h 307.3 V 963.04 h -307.3 v -69.96 c 0,-8.82 0.99,-17.59 3.13,-26.15 2.41,-9.66 6.88,-18.55 13.96,-25.66 7.35,-7.39 16.31,-12.47 26.62,-14.31 6.68,-1.17 13.43,-1.83 20.2,-1.83 h 357.25 v -130.1 h -504.34 c -13.51,0 -27.4,1.83 -40.68,4.22 -14.27,2.57 -26.42,10.42 -36.61,20.16 -9.39,9.38 -17.23,20.58 -20.67,33.78 -3.42,13.12 -5.38,26.58 -5.38,40.15 z"
   id="path1152"
   style="fill:#ffffff" /><path
   class="fil1"
   d="m 682.96,0 h 1263.1 v 1167.64 c 0,428.13 -350.29,778.42 -778.42,778.42 H 0 V 682.96 C 0,307.33 307.33,0 682.96,0 Z"
   id="path1154" /><path
   class="fil2"
   d="m 736.73,196.85 h 558.04 V 499.23 H 736.73 c -131.99,0 -240.98,108.99 -240.98,240.98 v 1015.8 H 193.36 V 740.21 c 0,-298.87 244.5,-543.36 543.37,-543.36 z"
   id="path1156" /><path
   class="fil3"
   d="m 1153.53,948.14 h 141.15 V 840.82 H 1402 V 643.74 H 766.92 C 702.96,648.89 650.9,704.13 650.9,769.16 v 32.28 c 0.23,7.47 0.34,15.25 0.34,23.46 v 513.79 -126.04 240.98 302.38 h 302.38 298.88 l 1.3,-1.88 c 278.14,-22.82 498.72,-257.63 498.72,-541.48 V 946.13 h 0.18 V 643.74 h -0.18 V 190.05 h -295.18 l -7.04,6.8 v 427.02 19.87 197.08 h 107.33 v 262.95 H 1450.3 v 159.86 h 107.33 v 262.95 h -262.95 v -107.32 h -141.15 v 107.32 H 890.58 V 1263.63 H 997.9 V 1103.77 H 890.58 V 840.82 h 262.95 z"
   id="path1158" /><polygon
   class="fil3"
   points="1153.53,1103.77 1046.2,1103.77 1046.2,1263.63 1153.53,1263.63 1153.53,1370.96 1294.68,1370.96 1294.68,1263.63 1402,1263.63 1402,1103.77 1294.68,1103.77 1294.68,996.45 1153.53,996.45 "
   id="polygon1160" />
 </g>
</svg>
